<?xml version="1.0" standalone="no"?>
<!DOCTYPE svg PUBLIC "-//W3C//DTD SVG 20010904//EN"
 "http://www.w3.org/TR/2001/REC-SVG-20010904/DTD/svg10.dtd">
<svg version="1.0" xmlns="http://www.w3.org/2000/svg"
 width="500.000000pt" height="500.000000pt" viewBox="0 0 500.000000 500.000000"
 preserveAspectRatio="xMidYMid meet">

<g transform="translate(0.000000,500.000000) scale(0.100000,-0.100000)"
fill="#000000" stroke="none">
<path d="M2471 4158 c-21 -73 -110 -248 -175 -348 -67 -101 -140 -213 -224
-345 -83 -130 -169 -331 -204 -474 -41 -168 -21 -402 44 -521 11 -19 17 -26
13 -16 -5 16 -3 17 10 6 10 -9 12 -16 5 -25 -7 -8 -5 -18 6 -31 15 -19 15 -19
5 1 -6 14 -5 26 5 40 8 10 14 24 14 29 0 6 -5 4 -11 -4 -8 -11 -9 -8 -5 15 6
27 5 28 -8 12 -12 -16 -14 -16 -20 -1 -9 23 -7 31 4 14 8 -13 10 -12 10 4 0
18 1 18 20 1 18 -17 20 -17 20 -1 0 9 9 34 20 56 14 28 16 40 7 43 -6 3 -3 6
7 6 11 1 16 4 13 8 -4 3 1 12 11 19 13 10 14 12 2 11 -8 -2 -20 -6 -26 -9 -6
-4 -21 4 -32 17 -21 24 -21 25 -3 25 11 0 22 -8 24 -17 3 -10 5 -4 6 12 0 17
-5 37 -11 44 -11 11 -10 13 5 8 15 -6 18 -2 16 16 -3 26 8 83 28 152 8 28 19
68 26 90 18 66 79 188 105 212 15 14 38 23 56 23 20 0 26 3 18 9 -10 6 -10 10
3 21 8 7 15 19 15 28 0 11 8 13 34 9 20 -3 45 0 61 9 33 17 43 18 27 2 -17
-17 -15 -28 6 -28 21 -1 45 -18 59 -45 10 -18 12 -16 17 15 4 28 15 950 10
950 0 0 -6 -19 -13 -42z m-564 -1600 c-3 -8 -6 -5 -6 6 -1 11 2 17 5 13 3 -3
4 -12 1 -19z"/>
<path d="M2521 3200 l0 -925 29 95 c42 141 62 192 133 340 80 168 121 295 137
429 23 189 -11 329 -144 598 -52 107 -81 179 -149 373 -3 8 -6 -401 -6 -910z"/>
<path d="M2774 3608 c13 -29 33 -84 46 -123 13 -38 60 -143 106 -232 72 -140
124 -275 148 -383 3 -14 27 -54 54 -90 104 -139 177 -292 206 -433 54 -260
-37 -551 -235 -747 -94 -94 -181 -150 -277 -180 -42 -13 -81 -35 -120 -68 -84
-69 -116 -87 -222 -123 -112 -37 -252 -49 -350 -30 -34 7 -64 10 -67 8 -2 -3
31 -19 74 -35 235 -90 524 -88 770 8 228 87 455 304 566 541 157 334 156 653
-3 972 -74 148 -141 242 -345 484 -44 52 -87 105 -95 117 -8 11 -53 68 -99
126 -46 58 -104 135 -128 173 -23 37 -45 67 -47 67 -3 0 5 -24 18 -52z"/>
<path d="M2855 3203 c-10 -96 -41 -248 -63 -313 -28 -77 -106 -256 -135 -310
-28 -49 -97 -256 -122 -360 -16 -69 -21 -301 -7 -285 5 6 29 57 53 114 41 99
50 111 153 220 61 64 118 123 127 131 39 36 91 112 126 185 l38 80 0 140 c-1
152 -6 177 -73 330 -34 78 -69 135 -83 135 -4 0 -10 -30 -14 -67z"/>
<path d="M1873 3222 c-11 -15 -50 -70 -85 -122 -36 -52 -100 -146 -143 -208
-220 -323 -292 -641 -209 -928 29 -102 109 -262 174 -347 24 -33 86 -94 137
-137 146 -122 273 -175 443 -186 149 -10 305 22 410 84 l45 27 -65 8 c-198 24
-261 44 -414 135 -96 57 -148 118 -211 247 -63 131 -78 199 -72 320 3 55 13
121 22 146 l16 46 -40 64 c-66 105 -93 203 -99 347 -7 183 19 319 89 467 15
32 27 61 25 62 -1 2 -12 -10 -23 -25z"/>
<path d="M2425 3010 c-27 -41 -91 -117 -141 -170 -185 -193 -251 -317 -242
-458 5 -90 36 -152 117 -232 86 -84 293 -201 316 -178 3 3 4 254 3 559 l-3
554 -50 -75z"/>
<path d="M3071 2725 c-16 -93 -65 -211 -114 -277 -23 -31 -82 -101 -132 -155
-130 -144 -138 -153 -120 -153 9 0 18 7 21 15 4 8 11 15 17 15 7 0 7 -4 -1
-12 -7 -7 -12 -18 -12 -26 0 -12 3 -12 16 -1 11 9 14 22 10 42 -5 25 -4 28 9
17 18 -15 19 -42 3 -58 -13 -13 13 -26 78 -38 l39 -7 -27 -9 c-16 -6 -28 -16
-28 -24 0 -16 123 56 153 91 10 11 32 35 48 52 16 18 29 37 29 43 0 5 5 10 10
10 6 0 10 7 10 15 0 8 6 12 14 9 8 -3 17 -1 21 5 3 6 16 10 28 10 17 -1 18 -2
4 -6 -23 -6 -12 -23 16 -23 22 0 22 -1 -3 -20 -14 -11 -23 -20 -20 -21 3 0 13
-2 23 -4 22 -4 35 -15 18 -15 -24 0 7 -36 34 -38 38 -3 45 -9 46 -45 0 -31 1
-31 10 -7 17 42 22 171 10 248 -13 82 -57 216 -92 283 -35 64 -91 149 -100
149 -4 0 -12 -29 -18 -65z"/>
<path d="M2067 2705 c-15 -14 -27 -29 -27 -32 0 -4 14 6 30 22 28 26 34 35 27
35 -1 0 -15 -11 -30 -25z"/>
<path d="M1972 2126 c5 -114 7 -120 48 -204 73 -146 220 -269 379 -316 86 -25
81 -32 81 113 0 124 -1 131 -26 160 -14 17 -68 52 -122 78 -119 59 -195 114
-291 212 l-74 75 5 -118z"/>
<path d="M3227 2133 c-4 -3 -7 -11 -7 -17 0 -6 5 -5 12 2 6 6 9 14 7 17 -3 3
-9 2 -12 -2z"/>
<path d="M2673 2116 c-3 -6 -2 -8 2 -3 5 4 18 -1 29 -10 15 -14 18 -14 8 -2
-6 9 -10 18 -7 21 3 2 -2 5 -10 5 -9 0 -19 -5 -22 -11z"/>
</g>
</svg>
